# xmcd CD database file
#
# Track frame offsets:
#	187
#	21164
#	40472
#
# Disc length: 777 seconds
#
# Revision: 1
# Processed by: cddbd v1.5.2PL0 Copyright (c) Steve Scherf et al.
# Submitted via: CDex 1.60beta1-cs1
#
DISCID=1f030703
DTITLE=GOMES THE HITMAN - 雨の夜と月の光 rain song e.p.
DYEAR=1999
DGENRE=Pop
TTITLE0=雨の夜と月の光 (rain song)
TTITLE1=スティーヴン・ダフィー的スクラップブック (Stephen Duffy - like scrapbook)
TTITLE2=down the river to the sea
EXTD=YEAR: 1999
EXTT0=
EXTT1=
EXTT2=
PLAYORDER=
